<svg width="262" height="298" viewBox="0 0 262 298" fill="none" xmlns="http://www.w3.org/2000/svg">
<path d="M118.5 76.25C118.5 89.6429 107.643 100.5 94.25 100.5C80.8571 100.5 70 89.6429 70 76.25C70 62.8571 80.8571 52 94.25 52C107.643 52 118.5 62.8571 118.5 76.25ZM94.25 124.75C80.8571 124.75 70 135.607 70 149C70 162.393 80.8571 173.25 94.25 173.25C107.643 173.25 118.5 162.393 118.5 149C118.5 135.607 107.643 124.75 94.25 124.75ZM94.25 197.5C80.8571 197.5 70 208.357 70 221.75C70 235.143 80.8571 246 94.25 246C107.643 246 118.5 235.143 118.5 221.75C118.5 208.357 107.643 197.5 94.25 197.5ZM167 124.75C153.607 124.75 142.75 135.607 142.75 149C142.75 162.393 153.607 173.25 167 173.25C180.393 173.25 191.25 162.393 191.25 149C191.25 135.607 180.393 124.75 167 124.75ZM167 197.5C153.607 197.5 142.75 208.357 142.75 221.75C142.75 235.143 153.607 246 167 246C180.393 246 191.25 235.143 191.25 221.75C191.25 208.357 180.393 197.5 167 197.5Z" fill="#3AA9E9"/>
</svg>
