<svg width="500" height="500" viewBox="0 0 500 500" fill="none" xmlns="http://www.w3.org/2000/svg">
<rect width="500" height="500" fill="white"/>
<path d="M80.48 348C79.136 348 77.984 347.52 77.024 346.56C76.064 345.408 75.584 344.16 75.584 342.816V216.96C75.584 215.424 76.064 214.272 77.024 213.504C77.984 212.544 79.136 212.064 80.48 212.064C82.016 212.064 83.264 212.544 84.224 213.504C85.184 214.272 85.664 215.424 85.664 216.96V232.224C88.928 226.656 93.728 221.664 100.064 217.248C106.592 212.64 114.656 210.336 124.256 210.336C133.664 210.336 142.304 212.736 150.176 217.536C158.048 222.144 164.288 228.384 168.896 236.256C173.696 243.936 176.096 252.576 176.096 262.176V342.816C176.096 344.544 175.52 345.888 174.368 346.848C173.408 347.616 172.256 348 170.912 348C169.76 348 168.608 347.616 167.456 346.848C166.496 345.888 166.016 344.544 166.016 342.816V262.176C166.016 255.072 164.096 248.352 160.256 242.016C156.608 235.68 151.712 230.496 145.568 226.464C139.424 222.432 132.608 220.416 125.12 220.416C118.592 220.416 112.256 222.144 106.112 225.6C100.16 228.864 95.264 233.568 91.424 239.712C87.584 245.856 85.664 253.344 85.664 262.176V342.816C85.664 344.16 85.184 345.408 84.224 346.56C83.264 347.52 82.016 348 80.48 348ZM264.352 349.728C254.944 349.728 246.304 347.328 238.432 342.528C230.752 337.728 224.608 331.392 220 323.52C215.392 315.456 213.088 306.912 213.088 297.888V217.248C213.088 215.904 213.568 214.752 214.528 213.792C215.68 212.64 216.928 212.064 218.272 212.064C219.616 212.064 220.768 212.64 221.728 213.792C222.688 214.752 223.168 215.904 223.168 217.248V297.888C223.168 304.992 224.992 311.712 228.64 318.048C232.288 324.384 237.184 329.568 243.328 333.6C249.664 337.632 256.672 339.648 264.352 339.648C272.032 339.648 278.944 337.728 285.088 333.888C291.232 329.856 296.128 324.672 299.776 318.336C303.424 311.808 305.248 304.992 305.248 297.888V216.96C305.248 215.616 305.728 214.464 306.688 213.504C307.84 212.544 309.088 212.064 310.432 212.064C311.968 212.064 313.12 212.544 313.888 213.504C314.848 214.464 315.328 215.616 315.328 216.96V297.888C315.328 307.104 313.024 315.648 308.416 323.52C303.808 331.392 297.568 337.728 289.696 342.528C282.016 347.328 273.568 349.728 264.352 349.728ZM360.947 348C359.603 348 358.451 347.52 357.491 346.56C356.531 345.408 356.051 344.16 356.051 342.816V131.712C356.051 130.176 356.531 129.024 357.491 128.256C358.451 127.296 359.603 126.816 360.947 126.816C362.483 126.816 363.731 127.296 364.691 128.256C365.651 129.024 366.131 130.176 366.131 131.712V342.816C366.131 344.16 365.651 345.408 364.691 346.56C363.731 347.52 362.483 348 360.947 348ZM415.51 348C414.166 348 413.014 347.52 412.054 346.56C411.094 345.408 410.614 344.16 410.614 342.816V131.712C410.614 130.176 411.094 129.024 412.054 128.256C413.014 127.296 414.166 126.816 415.51 126.816C417.046 126.816 418.294 127.296 419.254 128.256C420.214 129.024 420.694 130.176 420.694 131.712V342.816C420.694 344.16 420.214 345.408 419.254 346.56C418.294 347.52 417.046 348 415.51 348Z" fill="black"/>
</svg>
