<?xml version="1.0" encoding="utf-8"?>
<!-- Generator: Adobe Illustrator 28.0.0, SVG Export Plug-In . SVG Version: 6.00 Build 0)  -->
<svg version="1.1" id="Layer_1" xmlns="http://www.w3.org/2000/svg" xmlns:xlink="http://www.w3.org/1999/xlink" x="0px" y="0px"
	 viewBox="0 0 264.8 283" style="enable-background:new 0 0 264.8 283;" xml:space="preserve">
<style type="text/css">
	.st0{fill:#14ABE0;}
	.st1{fill:#FFFFFF;}
	.st2{fill:url(#SVGID_1_);}
</style>
<path class="st0" d="M206.3,0H58.6c-7.7,0-15.3,1.5-22.4,4.5c-7.1,2.9-13.6,7.3-19,12.7c-5.4,5.4-9.8,11.9-12.7,19
	C1.5,43.3,0,50.9,0,58.6v127.3c0,15.5,6.2,30.4,17.2,41.4c11,11,25.9,17.2,41.4,17.2v38.2l49.9-38.2h97.8c15.5,0,30.4-6.2,41.4-17.2
	c11-11,17.2-25.9,17.2-41.4V58.6c0-15.5-6.2-30.4-17.1-41.4C236.7,6.2,221.8,0,206.3,0z"/>
<path class="st1" d="M99.6,76.5c-2.7-4.7-7.2-8.2-12.5-9.6c-5.3-1.4-10.9-0.7-15.6,2.1l-2.9,1.7c-4.7,2.7-8.2,7.2-9.6,12.5
	C57.6,88.4,58.3,94,61,98.8l41.6,72.1c3.5,6.1,9.3,10.6,16.2,12.4c6.8,1.8,14.1,0.9,20.2-2.7l15.5-9L99.6,76.5z"/>
<linearGradient id="SVGID_1_" gradientUnits="userSpaceOnUse" x1="141.3964" y1="117.2668" x2="181.3764" y2="198.0568" gradientTransform="matrix(1 0 0 -1 0 284)">
	<stop  offset="0" style="stop-color:#FFFFFF;stop-opacity:0"/>
	<stop  offset="0.28" style="stop-color:#FFFFFF;stop-opacity:5.000000e-02"/>
	<stop  offset="0.58" style="stop-color:#FFFFFF;stop-opacity:8.000000e-02"/>
	<stop  offset="0.62" style="stop-color:#FFFFFF;stop-opacity:0.1"/>
	<stop  offset="0.68" style="stop-color:#FFFFFF;stop-opacity:0.16"/>
	<stop  offset="0.74" style="stop-color:#FFFFFF;stop-opacity:0.26"/>
	<stop  offset="0.8" style="stop-color:#FFFFFF;stop-opacity:0.39"/>
	<stop  offset="0.87" style="stop-color:#FFFFFF;stop-opacity:0.57"/>
	<stop  offset="0.94" style="stop-color:#FFFFFF;stop-opacity:0.78"/>
	<stop  offset="1" style="stop-color:#FFFFFF"/>
</linearGradient>
<path class="st2" d="M196.1,70.8l-2.9-1.7c-4.7-2.7-10.3-3.5-15.6-2.1c-5.3,1.4-9.8,4.9-12.5,9.6l-55,95.2l15.5,9
	c3,1.7,6.4,2.9,9.8,3.3c3.5,0.5,7,0.2,10.4-0.7c3.4-0.9,6.5-2.5,9.3-4.6c2.8-2.1,5.1-4.8,6.8-7.8l41.6-72.1c1.4-2.3,2.2-4.9,2.6-7.6
	c0.4-2.7,0.2-5.4-0.5-8s-1.9-5.1-3.6-7.2C200.5,73.9,198.5,72.1,196.1,70.8z"/>
<path class="st1" d="M183.6,66.7c-4.4,0-8.8,1.3-12.4,3.8c-3.7,2.5-6.6,6-8.2,10.1c-1.7,4.1-2.1,8.6-1.3,12.9
	c0.9,4.3,3,8.3,6.1,11.5c3.1,3.1,7.1,5.3,11.5,6.1c4.3,0.9,8.8,0.4,12.9-1.3c4.1-1.7,7.6-4.6,10.1-8.2c2.5-3.7,3.8-8,3.8-12.4
	c0-3-0.6-5.9-1.7-8.6c-1.1-2.7-2.8-5.2-4.9-7.3c-2.1-2.1-4.6-3.7-7.3-4.9C189.4,67.2,186.5,66.7,183.6,66.7z"/>
</svg>
